<?xml version="1.0" encoding="utf-8"?>
<!-- Generator: Adobe Illustrator 22.0.1, SVG Export Plug-In . SVG Version: 6.00 Build 0)  -->
<svg version="1.1" id="Layer_1" xmlns="http://www.w3.org/2000/svg" xmlns:xlink="http://www.w3.org/1999/xlink" x="0px" y="0px"
	 viewBox="0 0 512 512" style="enable-background:new 0 0 512 512;" xml:space="preserve">
<style type="text/css">
	.st0{fill:#FF5B61;}
	.st1{fill:#EC4B53;}
	.st2{fill:#FAEC21;}
	.st3{fill:#FBB429;}
</style>
<path class="st0" d="M369.7,430l-19.9-85.5c0,0,68.2-65.7,60.6-149.8c-7.7-84.2-92.5-137.1-178.5-114.1
	c-86.1,22.9-100.3,91.9-100.7,103.2c-0.4,11.3,10.2,40.2,2.5,60c-7.7,19.8-35.1,50.7-32.5,59.9c2.6,9.2,26.1,10.8,26.1,10.8
	s0.3,8.9-2.9,10.8c-3.1,1.9-1.4,9.3,3.8,13.5c5.2,4.1,13.7,6.9,13.7,6.9s-9.9,2.2-8.6,9.2c1.3,7,4.8,10.5,12.1,10.8
	c7.3,0.3,9.2-3.2,10.5,0.6c1.3,3.8,2.1,4.1,2.1,4.1s-7.3,19-0.9,33c6.4,14,16.3,14,27.7,11.2c11.5-2.9,33.8-9.2,33.8-9.2l6.1,31.1
	c6.4,45.3-24.4,68.5-25.1,69c18.1,4.1,37,6.2,56.3,6.2c57,0,109.7-18.6,152.2-50.2C404.1,459.9,371.2,431.5,369.7,430L369.7,430
	L369.7,430z"/>
<g>
	<path class="st1" d="M159.2,407.6c6.4,10.1,15.3,9.8,25.6,7.2c11.5-2.9,33.8-9.2,33.8-9.2l6.1,31.1c2.2,15.4,0,28.3-3.8,38.6l0,0
		c21.3-30.4,5.6-53.6,8.4-65.2c2.8-11.5,47.4-22.5,56.8-29.6c9.4-7.2,16.1-27,16.1-27s-9.4,14.3-19.3,23.1
		c-10,8.7-87.5,31.5-102.3,36.5C166.5,417.9,159.9,408.6,159.2,407.6z"/>
	<path class="st1" d="M210.7,87.7c53.6-19.6,117.1-9,155.6,30.3c45.9,46.9,56.6,132.3-23.6,222.7l27,89.3l-19.9-85.5
		c0,0,68.2-65.7,60.6-149.8c-7.7-84.2-92.5-137.1-178.5-114.1C224.3,82.7,217.2,85.1,210.7,87.7L210.7,87.7L210.7,87.7z"/>
</g>
<path class="st2" d="M271.6,122.3c27.9,0,50.5,23.1,50.5,51.6c0,19.3-10.4,36.1-25.7,45v23.7c0,2.8-2.3,5.1-5,5.1h-37
	c-2.8,0-5-2.3-5-5.1v-22.3c-16.7-8.4-28.3-26-28.3-46.3C221.1,145.4,243.8,122.3,271.6,122.3C271.6,122.3,271.6,122.3,271.6,122.3z"
	/>
<g>
	<path class="st3" d="M256.2,247h30.9c2.2,0,4,1.4,4,3.1s-1.8,3.1-4,3.1c2.2,0,4,1.4,4,3.1c0,1.7-1.8,3.1-4,3.1c2.2,0,4,1.4,4,3.1v0
		c0,1.7-1.8,3.1-4,3.1h-30.9c-2.2,0-4-1.4-4-3.1v0c0-1.7,1.8-3.1,4-3.1c-2.2,0-4-1.4-4-3.1c0-1.7,1.8-3.1,4-3.1c-2.2,0-4-1.4-4-3.1
		C252.2,248.4,254,247,256.2,247z"/>
	<path class="st3" d="M257.7,172.7l8,65.3h5.9h5.9l8-65.3l2.9,0.5l-8.2,66.7l-0.2,1.4h-1.3h-7.2h-7.2h-1.3l-0.2-1.4l-8.2-66.7
		L257.7,172.7L257.7,172.7L257.7,172.7z"/>
	<path class="st3" d="M276.4,164.4l-1.1,7.3l27.4-4.1l-37.2,15.5L267,173l-24.4,4.6L276.4,164.4L276.4,164.4L276.4,164.4z"/>
</g>
<path class="st2" d="M269.2,279.1v0.9h-3.1v-0.9H265c-1.2,0-2.2-0.7-2.7-1.8h-0.1c-1.6,0-2.9-1.4-2.9-3.2c0-1.1,0.5-2.1,1.3-2.6
	h-4.5c-1.6,0-2.9-1.4-2.9-3.2c0-1.7,1.3-3.2,2.9-3.2h31c1.6,0,2.9,1.4,2.9,3.2c0,1.7-1.3,3.2-2.9,3.2h-4.5c0.8,0.6,1.3,1.5,1.3,2.6
	c0,1.7-1.3,3.2-2.9,3.2h-0.1c-0.5,1.1-1.5,1.8-2.7,1.8H277v0.9H274v-0.9H269.2L269.2,279.1z"/>
</svg>
