<?xml version="1.0" encoding="utf-8"?>
<!-- Generator: Adobe Illustrator 22.0.1, SVG Export Plug-In . SVG Version: 6.00 Build 0)  -->
<svg version="1.1" xmlns="http://www.w3.org/2000/svg" xmlns:xlink="http://www.w3.org/1999/xlink" x="0px" y="0px"
	 viewBox="0 0 741.8 639.9" style="enable-background:new 0 0 741.8 639.9;" xml:space="preserve">
<style type="text/css">
	.st0{fill:#464655;}
	.st1{fill:#707384;}
	.st2{fill:#535463;}
	.st3{fill:#5FD7B4;}
	.st4{fill:#7DE6C3;}
	.st5{fill:#FFCD73;}
	.st6{fill:#FFFFFF;}
</style>
<g id="Capa_2">
</g>
<g id="Capa_1">
	<path class="st0" d="M115.9,183.8H63.6c-6.3,0-11.5-5.1-11.5-11.5v-32.3c0-6.3,5.1-11.5,11.5-11.5h52.3c6.3,0,11.5,5.1,11.5,11.5
		v32.3C127.4,178.7,122.2,183.8,115.9,183.8z"/>
	<path class="st1" d="M691.5,587H50.5C22.6,587,0,564.4,0,536.5V229.5C0,201.6,22.6,179,50.5,179h641.1c27.9,0,50.5,22.6,50.5,50.5
		v307.1C742,564.4,719.4,587,691.5,587z"/>
	<rect x="179.5" y="229.5" class="st0" width="562.5" height="307.1"/>
	<circle class="st2" cx="447.7" cy="421.7" r="217.8"/>
	<circle class="st0" cx="447.7" cy="421.7" r="165.8"/>
	<circle class="st3" cx="447.7" cy="421.7" r="141"/>
	<path class="st4" d="M480.3,284.5c-62.7,14.3-109.5,70.4-109.5,137.4c0,66.8,46.4,122.7,108.8,137.2
		c62.6-14.4,109.2-70.5,109.2-137.4C588.7,355.1,542.5,299.2,480.3,284.5z"/>
	<path class="st2" d="M129,587H50.5C22.6,587,0,564.4,0,536.5V204.2c0-27.9,22.6-50.5,50.5-50.5H129c27.9,0,50.5,22.6,50.5,50.5
		v332.3C179.5,564.4,156.9,587,129,587z"/>
	<path class="st0" d="M54.3,219H0v305h54.3c19.6,0,35.5-15.9,35.5-35.5V254.5C89.7,234.9,73.9,219,54.3,219z"/>
	<circle class="st5" cx="684.5" cy="281" r="19.5"/>
	<circle class="st3" cx="448.6" cy="420.8" r="50.5"/>
	<circle class="st6" cx="431.5" cy="425.3" r="16.2"/>
	<path class="st1" d="M573.8,129.2c-3.1-8.8-9.1-16.5-17.2-21.1c-0.5-0.3-1-0.6-1.5-0.8c-5.5-2.8-11.6-4.1-17.7-4.1H360.1
		c-6.1,0-12.3,1.3-17.7,4.1c-0.5,0.3-1,0.5-1.5,0.8c-8.1,4.7-14.1,12.3-17.2,21.1c-6.5,18.5-16.2,49.8-16.2,49.8H590
		C590,179,580.3,147.6,573.8,129.2z"/>
	<path class="st2" d="M371,103.1c0,0,5.5,20.5,9.2,32.6c1.8,5.8,4.9,10.2,9.6,13.2c0.3,0.2,0.6,0.4,0.9,0.5
		c3.1,1.8,5.7,3.3,10.3,3.3h93.5c4.6,0,7.2-1.5,10.3-3.3c0.3-0.2,0.6-0.4,0.9-0.5c4.6-3.1,7.8-7.4,9.6-13.2
		c3.7-12.1,9.2-32.6,9.2-32.6H371z"/>
	<circle class="st6" cx="485.9" cy="371.4" r="39.1"/>
</g>
</svg>
