<?xml version="1.0" encoding="utf-8"?>
<!-- Generator: Adobe Illustrator 22.0.1, SVG Export Plug-In . SVG Version: 6.00 Build 0)  -->
<svg version="1.1" xmlns="http://www.w3.org/2000/svg" xmlns:xlink="http://www.w3.org/1999/xlink" x="0px" y="0px"
	 viewBox="0 0 24.4 36.2" style="enable-background:new 0 0 24.4 36.2;" xml:space="preserve">
<style type="text/css">
	.st0{fill:#707384;}
	.st1{fill:#5B5C6C;}
	.st2{fill:#72B0BE;}
	.st3{fill:#BEC8DC;}
	.st4{fill:#A1A8BB;}
	.st5{fill:#A0DCF0;}
</style>
<g id="Capa_1">
</g>
<g id="Capa_2">
	<rect x="5.1" y="23.2" class="st0" width="14.4" height="1.2"/>
	<path class="st1" d="M12.2,25.6L12.2,25.6c-0.3,0-0.6-0.3-0.6-0.6v-2.5c0-0.3,0.3-0.6,0.6-0.6h0c0.3,0,0.6,0.3,0.6,0.6V25
		C12.8,25.4,12.6,25.6,12.2,25.6z"/>
	<path class="st0" d="M3.5,29.7l-2.4,6.2c-0.1,0.3-0.5,0.5-0.8,0.4h0c-0.3-0.1-0.5-0.5-0.4-0.8l2.4-6.2c0.1-0.3,0.5-0.5,0.8-0.4h0
		C3.5,29,3.7,29.4,3.5,29.7z"/>
	<path class="st0" d="M20.9,29.7l2.4,6.2c0.1,0.3,0.5,0.5,0.8,0.4h0c0.3-0.1,0.5-0.5,0.4-0.8L22,29.2c-0.1-0.3-0.5-0.5-0.8-0.4l0,0
		C20.9,29,20.7,29.4,20.9,29.7z"/>
	<rect x="11.5" y="3.9" class="st2" width="1.3" height="2.1"/>
	<path class="st3" d="M9.9,7.6L1.3,30.8c-0.2,0.5,0,1.1,0.5,1.3l0,0c0.5,0.2,1.1,0,1.4-0.5l8.9-20.8c0.1-0.1,0.1-0.3,0.1-0.4l0-1.3
		c0-0.6-0.5-1-1-1l-0.8,0C10,8.1,10,7.2,9.9,7.6z"/>
	<path class="st4" d="M12.2,9.1c0-0.6-0.5-1-1-1l-0.8,0c-0.4,0-0.6-0.4-0.7,0L9,10c0.6,1,1.5,1.6,2.7,1.8l0.4-0.9
		c0.1-0.1,0.1-0.3,0.1-0.4L12.2,9.1z"/>
	<path class="st3" d="M14.5,7.6l8.6,23.2c0.2,0.5,0,1.1-0.5,1.3l0,0c-0.5,0.2-1.1,0-1.4-0.5l-8.9-20.8c-0.1-0.1-0.1-0.3-0.1-0.4
		l0-1.3c0-0.6,0.5-1,1-1l0.8,0C14.4,8.1,14.4,7.2,14.5,7.6z"/>
	<path class="st4" d="M14.7,8.1c-0.1-0.4-0.3,0-0.7,0l-0.8,0c-0.6,0-1,0.5-1,1l0,1.3c0,0.1,0,0.3,0.1,0.4l0.4,0.9
		c1.2-0.2,2.1-0.9,2.7-1.9L14.7,8.1z"/>
	<circle class="st5" cx="12.2" cy="8.1" r="2.5"/>
	<circle class="st2" cx="12.2" cy="8.1" r="1.2"/>
	<path class="st5" d="M12.8,4.4h-1.3c-0.3,0-0.6-0.3-0.6-0.6V0.6C11,0.3,11.2,0,11.6,0h1.3c0.3,0,0.6,0.3,0.6,0.6v3.2
		C13.4,4.1,13.2,4.4,12.8,4.4z"/>
</g>
</svg>
