<?xml version="1.0" encoding="utf-8"?>
<!-- Generator: Adobe Illustrator 22.0.1, SVG Export Plug-In . SVG Version: 6.00 Build 0)  -->
<svg version="1.1" id="Capa_2" xmlns="http://www.w3.org/2000/svg" xmlns:xlink="http://www.w3.org/1999/xlink" x="0px" y="0px"
	 viewBox="0 0 330.9 504.1" style="enable-background:new 0 0 330.9 504.1;" xml:space="preserve">
<style type="text/css">
	.st0{fill:#324D5B;}
	.st1{fill:#516873;}
</style>
<path class="st0" d="M330.8,114.2V15.8C331.2,7.1,324.1,0,315.5,0H15.4C6.7,0-0.4,7.1,0,15.8v98.5l0,0v374.2
	c0,8.7,7.1,15.8,15.8,15.8h0h299.3h0c8.7,0,15.8-7.1,15.8-15.8L330.8,114.2L330.8,114.2z M60.7,468.9c0,5.9-5.1,10.6-11.4,10.6h-13
	c-6.3,0-11.4-4.7-11.4-10.6v-10.6c0-5.9,5.1-10.6,11.4-10.6h13c6.3,0,11.4,4.7,11.4,10.6V468.9z M60.7,422c0,5.9-5.1,10.6-11.4,10.6
	h-13c-6.3,0-11.4-4.7-11.4-10.6v-10.6c0-5.9,5.1-10.6,11.4-10.6h13c6.3,0,11.4,4.7,11.4,10.6V422z M60.7,375.1
	c0,5.9-5.1,10.6-11.4,10.6h-13c-6.3,0-11.4-4.7-11.4-10.6v-10.6c0-5.9,5.1-10.6,11.4-10.6h13c6.3,0,11.4,4.7,11.4,10.6V375.1z
	 M60.7,328.1c0,5.9-5.1,10.6-11.4,10.6h-13c-6.3,0-11.4-4.7-11.4-10.6v-10.6c0-5.9,5.1-10.6,11.4-10.6h13c6.3,0,11.4,4.7,11.4,10.6
	V328.1z M60.7,281.2c0,5.9-5.1,10.6-11.4,10.6h-13c-6.3,0-11.4-4.7-11.4-10.6v-10.6c0-5.9,5.1-10.6,11.4-10.6h13
	c6.3,0,11.4,4.7,11.4,10.6V281.2z M60.7,234.3c0,5.9-5.1,10.6-11.4,10.6h-13c-6.3,0-11.4-4.7-11.4-10.6v-10.6
	c0-5.9,5.1-10.6,11.4-10.6h13c6.3,0,11.4,4.7,11.4,10.6V234.3z M60.7,187.4c0,5.9-5.1,10.6-11.4,10.6h-13c-6.3,0-11.4-4.7-11.4-10.6
	v-10.6c0-5.9,5.1-10.6,11.4-10.6h13c6.3,0,11.4,4.7,11.4,10.6V187.4z M60.7,140.5c0,5.9-5.1,10.6-11.4,10.6h-13
	c-6.3,0-11.4-4.7-11.4-10.6v-10.6c0-5.9,5.1-10.6,11.4-10.6h13c6.3,0,11.4,4.7,11.4,10.6V140.5z M60.9,93.4h-0.4
	c0,5.9-5.1,10.6-11.4,10.6h-13c-6.3,0-11.4-4.7-11.4-10.6V82.8c0.4-5.5,5.5-10.2,11.8-10.2h13c6.3,0,11.4,4.7,11.4,10.6V93.4z
	 M60.9,46.5h-0.4c0,5.9-5.1,10.6-11.4,10.6h-13c-6.3,0-11.4-4.7-11.4-10.6V35.8c0.4-5.5,5.5-10.2,11.8-10.2h13
	c6.3,0,11.4,4.7,11.4,10.6V46.5z M306.8,468.9c0,5.9-5.1,10.6-11.4,10.6h-13c-6.3,0-11.4-4.7-11.4-10.6v-10.6
	c0-5.9,5.1-10.6,11.4-10.6h13c6.3,0,11.4,4.7,11.4,10.6V468.9z M306.8,422c0,5.9-5.1,10.6-11.4,10.6h-13c-6.3,0-11.4-4.7-11.4-10.6
	v-10.6c0-5.9,5.1-10.6,11.4-10.6h13c6.3,0,11.4,4.7,11.4,10.6V422z M306.8,375.1c0,5.9-5.1,10.6-11.4,10.6h-13
	c-6.3,0-11.4-4.7-11.4-10.6v-10.6c0-5.9,5.1-10.6,11.4-10.6h13c6.3,0,11.4,4.7,11.4,10.6V375.1z M306.8,328.1
	c0,5.9-5.1,10.6-11.4,10.6h-13c-6.3,0-11.4-4.7-11.4-10.6v-10.6c0-5.9,5.1-10.6,11.4-10.6h13c6.3,0,11.4,4.7,11.4,10.6V328.1z
	 M306.8,281.2c0,5.9-5.1,10.6-11.4,10.6h-13c-6.3,0-11.4-4.7-11.4-10.6v-10.6c0-5.9,5.1-10.6,11.4-10.6h13c6.3,0,11.4,4.7,11.4,10.6
	V281.2z M306.8,234.3c0,5.9-5.1,10.6-11.4,10.6h-13c-6.3,0-11.4-4.7-11.4-10.6v-10.6c0-5.9,5.1-10.6,11.4-10.6h13
	c6.3,0,11.4,4.7,11.4,10.6V234.3z M306.8,187.4c0,5.9-5.1,10.6-11.4,10.6h-13c-6.3,0-11.4-4.7-11.4-10.6v-10.6
	c0-5.9,5.1-10.6,11.4-10.6h13c6.3,0,11.4,4.7,11.4,10.6V187.4z M306.8,140.5c0,5.9-5.1,10.6-11.4,10.6h-13
	c-6.3,0-11.4-4.7-11.4-10.6v-10.6c0-5.9,5.1-10.6,11.4-10.6h13c6.3,0,11.4,4.7,11.4,10.6V140.5z M307,93.4h-0.4
	c0,5.9-5.1,10.6-11.4,10.6h-13c-6.3,0-11.4-4.7-11.4-10.6V82.8c0.4-5.5,5.5-10.2,11.8-10.2h13c6.3,0,11.4,4.7,11.4,10.6V93.4z
	 M307,46.5h-0.4c0,5.9-5.1,10.6-11.4,10.6h-13c-6.3,0-11.4-4.7-11.4-10.6V35.8c0.4-5.5,5.5-10.2,11.8-10.2h13
	c6.3,0,11.4,4.7,11.4,10.6V46.5z"/>
<path class="st1" d="M232.8,143.8H98.9c-4.3,0-7.9,3.5-7.9,7.9v82.7c0,4.3,3.5,7.9,7.9,7.9h133.9c4.3,0,7.9-3.5,7.9-7.9v-82.7
	C240.6,147.3,237.1,143.8,232.8,143.8z M232.8,261.9H98.9c-4.3,0-7.9,3.5-7.9,7.9v82.7c0,4.3,3.5,7.9,7.9,7.9h133.9
	c4.3,0,7.9-3.5,7.9-7.9v-82.7C240.6,265.5,237.1,261.9,232.8,261.9z M232.8,380.1H98.9c-4.3,0-7.9,3.5-7.9,7.9v82.7
	c0,4.3,3.5,7.9,7.9,7.9h133.9c4.3,0,7.9-3.5,7.9-7.9v-82.7C240.6,383.6,237.1,380.1,232.8,380.1z M232.8,143.8H98.9
	c-4.3,0-7.9,3.5-7.9,7.9v82.7c0,4.3,3.5,7.9,7.9,7.9h133.9c4.3,0,7.9-3.5,7.9-7.9v-82.7C240.6,147.3,237.1,143.8,232.8,143.8z
	 M232.8,25.6H98.9c-4.3,0-7.9,3.5-7.9,7.9v82.7c0,4.3,3.5,7.9,7.9,7.9h133.9c4.3,0,7.9-3.5,7.9-7.9V33.5
	C240.6,29.1,237.1,25.6,232.8,25.6z M232.8,261.9H98.9c-4.3,0-7.9,3.5-7.9,7.9v82.7c0,4.3,3.5,7.9,7.9,7.9h133.9
	c4.3,0,7.9-3.5,7.9-7.9v-82.7C240.6,265.5,237.1,261.9,232.8,261.9z M232.8,380.1H98.9c-4.3,0-7.9,3.5-7.9,7.9v82.7
	c0,4.3,3.5,7.9,7.9,7.9h133.9c4.3,0,7.9-3.5,7.9-7.9v-82.7C240.6,383.6,237.1,380.1,232.8,380.1z"/>
</svg>
