<?xml version="1.0" encoding="utf-8"?>
<!-- Generator: Adobe Illustrator 22.0.1, SVG Export Plug-In . SVG Version: 6.00 Build 0)  -->
<svg version="1.1" xmlns="http://www.w3.org/2000/svg" xmlns:xlink="http://www.w3.org/1999/xlink" x="0px" y="0px"
	 viewBox="0 0 682.8 494.1" style="enable-background:new 0 0 682.8 494.1;" xml:space="preserve">
<style type="text/css">
	.st0{fill:#434351;}
	.st1{fill:#FFFFFF;}
	.st2{fill:#FF6469;}
	.st3{fill:#FFDC69;}
	.st4{fill:#D2555F;}
	.st5{fill:#DEE3ED;}
	.st6{fill:#B4E173;}
	.st7{fill:#FF969B;}
	.st8{fill:#BEC8DC;}
	.st9{fill:#96A5B9;}
	.st10{fill:#AFBBD0;}
</style>
<g id="Capa_1">
</g>
<g id="Capa_2">
	<path class="st0" d="M638.2,478.4H45.8c-11.9,0-21.5-9.6-21.5-21.5V69.1c0-11.9,9.6-21.5,21.5-21.5h592.4
		c11.9,0,21.5,9.6,21.5,21.5v387.8C659.6,468.7,650,478.4,638.2,478.4z"/>
	<rect x="58" y="81.9" class="st1" width="566.8" height="330.1"/>
	<rect x="58" y="81.9" class="st2" width="566.8" height="70.8"/>
	<path class="st3" d="M212,128.9H94.3c-6.6,0-11.9-5.3-11.9-11.9v0c0-6.6,5.3-11.9,11.9-11.9H212c6.6,0,11.9,5.3,11.9,11.9v0
		C223.9,123.6,218.6,128.9,212,128.9z"/>
	<path class="st4" d="M304.9,128.9h-45.3c-6.6,0-11.9-5.3-11.9-11.9v0c0-6.6,5.3-11.9,11.9-11.9h45.3c6.6,0,11.9,5.3,11.9,11.9v0
		C316.8,123.6,311.5,128.9,304.9,128.9z"/>
	<path class="st4" d="M399.2,128.9h-45.3c-6.6,0-11.9-5.3-11.9-11.9v0c0-6.6,5.3-11.9,11.9-11.9h45.3c6.6,0,11.9,5.3,11.9,11.9v0
		C411.1,123.6,405.8,128.9,399.2,128.9z"/>
	<path class="st4" d="M494,128.9h-45.3c-6.6,0-11.9-5.3-11.9-11.9v0c0-6.6,5.3-11.9,11.9-11.9H494c6.6,0,11.9,5.3,11.9,11.9v0
		C505.9,123.6,500.6,128.9,494,128.9z"/>
	<path class="st4" d="M588.3,128.9H543c-6.6,0-11.9-5.3-11.9-11.9v0c0-6.6,5.3-11.9,11.9-11.9h45.3c6.6,0,11.9,5.3,11.9,11.9v0
		C600.2,123.6,594.9,128.9,588.3,128.9z"/>
	<path class="st5" d="M328.8,376.5H107.9c-7,0-12.7-5.7-12.7-12.7V200.5c0-7,5.7-12.7,12.7-12.7h220.8c7,0,12.7,5.7,12.7,12.7v163.3
		C341.4,370.8,335.8,376.5,328.8,376.5z"/>
	<path class="st3" d="M328.8,223.7H107.9c-7,0-12.7-5.7-12.7-12.7v-10.5c0-7,5.7-12.7,12.7-12.7h220.8c7,0,12.7,5.7,12.7,12.7V211
		C341.4,218,335.8,223.7,328.8,223.7z"/>
	<path class="st5" d="M446.6,376.5h-68.7c-7,0-12.7-5.7-12.7-12.7V200.5c0-7,5.7-12.7,12.7-12.7h68.7c7,0,12.7,5.7,12.7,12.7v163.3
		C459.2,370.8,453.6,376.5,446.6,376.5z"/>
	<path class="st6" d="M446.6,223.7h-68.7c-7,0-12.7-5.7-12.7-12.7v-10.5c0-7,5.7-12.7,12.7-12.7h68.7c7,0,12.7,5.7,12.7,12.7V211
		C459.2,218,453.6,223.7,446.6,223.7z"/>
	<path class="st5" d="M576.1,376.5h-68.7c-7,0-12.7-5.7-12.7-12.7V200.5c0-7,5.7-12.7,12.7-12.7h68.7c7,0,12.7,5.7,12.7,12.7v163.3
		C588.8,370.8,583.1,376.5,576.1,376.5z"/>
	<path class="st7" d="M576.1,223.7h-68.7c-7,0-12.7-5.7-12.7-12.7v-10.5c0-7,5.7-12.7,12.7-12.7h68.7c7,0,12.7,5.7,12.7,12.7V211
		C588.8,218,583.1,223.7,576.1,223.7z"/>
	<path class="st8" d="M671.1,447.6H11.9C5.3,447.6,0,453,0,459.6v12.8c0,10.3,10.9,21.9,21.9,21.9h639.1c11,0,21.9-11.6,21.9-21.9
		v-12.8C683,453,677.7,447.6,671.1,447.6z"/>
	<path class="st9" d="M271.4,447.6c3.1,0,3.8,23.4,23.9,23.4c11.6,0,80.9,0,92.4,0c20.1,0,20.7-23.4,23.9-23.4H271.4z"/>
	<path class="st10" d="M0,471v1.4c0,10.3,10.9,21.9,21.9,21.9h639.1c11,0,21.9-11.6,21.9-21.9V471H0z"/>
</g>
</svg>
