<?xml version="1.0" encoding="utf-8"?>
<!-- Generator: Adobe Illustrator 22.0.1, SVG Export Plug-In . SVG Version: 6.00 Build 0)  -->
<svg version="1.1" id="Capa_1" xmlns="http://www.w3.org/2000/svg" xmlns:xlink="http://www.w3.org/1999/xlink" x="0px" y="0px"
	 viewBox="0 0 208 76" style="enable-background:new 0 0 208 76;" xml:space="preserve">
<style type="text/css">
	.st0{fill:#B3B3B3;}
	.st1{fill:#808080;}
	.st2{fill:#FAEC21;}
</style>
<g>
	<g>
		<path class="st0" d="M46.7,72.3c0.2,0.3,0.5,0.6,0.8,0.8c0.3,0.2,0.7,0.3,1.1,0.4c0.4,0.1,0.8,0.1,1.2,0.1c0.3,0,0.7,0,1-0.1
			c0.4,0,0.7-0.1,1-0.3c0.3-0.1,0.6-0.3,0.8-0.6c0.2-0.3,0.3-0.6,0.3-1c0-0.5-0.2-1-0.6-1.2c-0.4-0.3-0.9-0.5-1.5-0.7
			c-0.6-0.2-1.3-0.3-2-0.5c-0.7-0.1-1.4-0.3-2-0.6c-0.6-0.3-1.1-0.6-1.5-1.1c-0.4-0.5-0.6-1.1-0.6-1.9c0-0.6,0.1-1.2,0.4-1.6
			c0.3-0.5,0.7-0.8,1.1-1.1s1-0.5,1.5-0.6c0.6-0.1,1.1-0.2,1.7-0.2c0.7,0,1.4,0.1,2,0.2c0.6,0.1,1.1,0.3,1.6,0.6
			c0.5,0.3,0.8,0.7,1.1,1.2c0.3,0.5,0.4,1.2,0.5,1.9h-2.1c0-0.4-0.1-0.8-0.3-1c-0.2-0.3-0.4-0.5-0.7-0.7c-0.3-0.2-0.6-0.3-0.9-0.4
			s-0.7-0.1-1-0.1c-0.3,0-0.6,0-0.9,0.1c-0.3,0-0.6,0.1-0.9,0.3c-0.3,0.1-0.5,0.3-0.6,0.5c-0.2,0.2-0.2,0.5-0.2,0.8
			c0,0.4,0.1,0.7,0.4,0.9c0.3,0.2,0.6,0.4,1,0.6c0.4,0.2,0.8,0.3,1.3,0.4c0.5,0.1,1,0.2,1.5,0.3c0.5,0.1,1,0.3,1.5,0.4
			c0.5,0.2,0.9,0.4,1.3,0.7c0.4,0.3,0.7,0.6,0.9,1s0.4,0.9,0.4,1.5c0,0.8-0.2,1.4-0.5,1.9s-0.7,0.9-1.3,1.2
			c-0.5,0.3-1.1,0.5-1.7,0.7c-0.6,0.1-1.3,0.2-1.9,0.2c-0.7,0-1.4-0.1-2-0.2c-0.6-0.1-1.2-0.4-1.7-0.7c-0.5-0.3-0.9-0.8-1.2-1.3
			c-0.3-0.5-0.5-1.2-0.5-2h2.1C46.4,71.6,46.5,71.9,46.7,72.3z"/>
		<path class="st0" d="M67,66.1c0.3-0.8,0.7-1.5,1.2-2.1c0.5-0.6,1.2-1.1,1.9-1.4c0.8-0.3,1.7-0.5,2.7-0.5c1,0,1.9,0.2,2.7,0.5
			c0.8,0.3,1.4,0.8,1.9,1.4c0.5,0.6,0.9,1.3,1.2,2.1c0.3,0.8,0.4,1.7,0.4,2.6s-0.1,1.8-0.4,2.6c-0.3,0.8-0.7,1.5-1.2,2.1
			c-0.5,0.6-1.2,1.1-1.9,1.4c-0.8,0.3-1.7,0.5-2.7,0.5c-1,0-1.9-0.2-2.7-0.5c-0.8-0.3-1.4-0.8-1.9-1.4c-0.5-0.6-0.9-1.3-1.2-2.1
			c-0.3-0.8-0.4-1.7-0.4-2.6S66.7,67,67,66.1z M69.1,70.8c0.2,0.6,0.5,1.1,0.8,1.5c0.4,0.4,0.8,0.7,1.3,0.9c0.5,0.2,1,0.3,1.5,0.3
			c0.5,0,1.1-0.1,1.5-0.3s0.9-0.5,1.3-0.9c0.4-0.4,0.6-0.9,0.8-1.5c0.2-0.6,0.3-1.3,0.3-2.1c0-0.8-0.1-1.5-0.3-2.1s-0.5-1.1-0.8-1.5
			c-0.4-0.4-0.8-0.7-1.3-0.9c-0.5-0.2-1-0.3-1.5-0.3c-0.5,0-1.1,0.1-1.5,0.3c-0.5,0.2-0.9,0.5-1.3,0.9c-0.4,0.4-0.6,0.9-0.8,1.5
			c-0.2,0.6-0.3,1.3-0.3,2.1C68.8,69.5,68.9,70.2,69.1,70.8z"/>
		<path class="st0" d="M90,64.2v-1.8h2.1v-1.9c0-1,0.3-1.8,0.9-2.3c0.6-0.5,1.5-0.8,2.6-0.8c0.2,0,0.4,0,0.7,0
			c0.3,0,0.5,0.1,0.7,0.1v1.8c-0.2-0.1-0.4-0.1-0.6-0.1s-0.4,0-0.6,0c-0.5,0-0.9,0.1-1.2,0.3s-0.4,0.6-0.4,1.1v1.8h2.5v1.8h-2.5
			v10.9h-2.1V64.2H90z"/>
		<path class="st0" d="M113.8,62.4v1.8h-2.5v7.9c0,0.2,0,0.4,0.1,0.6c0,0.1,0.1,0.3,0.2,0.3c0.1,0.1,0.3,0.1,0.5,0.2
			c0.2,0,0.5,0,0.8,0h1v1.8h-1.6c-0.5,0-1,0-1.4-0.1s-0.7-0.2-0.9-0.4c-0.2-0.2-0.4-0.5-0.5-0.8s-0.2-0.8-0.2-1.4v-8.1H107v-1.8h2.2
			v-3.8h2.1v3.8H113.8z"/>
		<path class="st0" d="M136.3,75.1L133.8,65h0l-2.6,10.1h-2.3l-4.1-12.7h2.3l2.9,10.4h0l2.6-10.4h2.3l2.7,10.4h0l2.9-10.4h2.2
			l-4.1,12.7H136.3z"/>
		<path class="st0" d="M165.7,75.1c-0.4,0.2-0.9,0.3-1.5,0.3c-0.5,0-1-0.2-1.3-0.5s-0.5-0.8-0.5-1.5c-0.6,0.7-1.2,1.2-2,1.5
			c-0.8,0.3-1.6,0.5-2.5,0.5c-0.6,0-1.1-0.1-1.6-0.2c-0.5-0.1-1-0.3-1.3-0.6c-0.4-0.3-0.7-0.6-0.9-1.1c-0.2-0.5-0.3-1-0.3-1.6
			c0-0.7,0.1-1.3,0.4-1.8s0.6-0.8,1-1.1c0.4-0.3,0.9-0.5,1.4-0.7c0.5-0.1,1-0.3,1.6-0.4c0.6-0.1,1.1-0.2,1.6-0.3
			c0.5-0.1,1-0.1,1.4-0.2c0.4-0.1,0.7-0.3,0.9-0.5c0.2-0.2,0.3-0.5,0.3-0.9c0-0.5-0.1-0.8-0.3-1.1c-0.2-0.3-0.4-0.5-0.7-0.6
			c-0.3-0.1-0.6-0.2-0.9-0.3c-0.3,0-0.7-0.1-1-0.1c-0.9,0-1.6,0.2-2.2,0.5c-0.6,0.3-0.9,1-1,1.9h-2.1c0-0.8,0.2-1.5,0.5-2
			c0.3-0.5,0.7-1,1.2-1.3c0.5-0.3,1.1-0.6,1.7-0.7c0.6-0.1,1.3-0.2,2-0.2c0.6,0,1.1,0,1.7,0.1c0.6,0.1,1.1,0.2,1.5,0.5
			c0.5,0.3,0.8,0.6,1.1,1.1c0.3,0.5,0.4,1.1,0.4,1.8v6.5c0,0.5,0,0.9,0.1,1.1c0.1,0.2,0.2,0.3,0.6,0.3c0.2,0,0.4,0,0.6-0.1V75.1z
			 M162.3,68.5c-0.3,0.2-0.6,0.3-1,0.4c-0.4,0.1-0.9,0.2-1.3,0.2c-0.5,0.1-0.9,0.1-1.4,0.2c-0.5,0.1-0.9,0.2-1.3,0.4
			s-0.7,0.4-0.9,0.7s-0.4,0.7-0.4,1.2c0,0.3,0.1,0.6,0.2,0.9c0.1,0.2,0.3,0.4,0.5,0.6c0.2,0.1,0.5,0.3,0.8,0.3s0.6,0.1,0.9,0.1
			c0.7,0,1.3-0.1,1.8-0.3c0.5-0.2,0.9-0.4,1.2-0.7c0.3-0.3,0.5-0.6,0.7-0.9c0.1-0.3,0.2-0.6,0.2-0.9V68.5z"/>
		<path class="st0" d="M179.4,62.4v2.7h0c0.5-1,1.1-1.8,1.9-2.3c0.7-0.5,1.7-0.7,2.8-0.7v2.2c-0.8,0-1.5,0.1-2.1,0.3
			c-0.6,0.2-1.1,0.6-1.4,1c-0.4,0.4-0.6,1-0.8,1.6s-0.2,1.4-0.2,2.2v5.7h-2.1V62.4H179.4z"/>
		<path class="st0" d="M204.1,74.3c-1,0.7-2.1,1.1-3.6,1.1c-1,0-1.9-0.2-2.6-0.5c-0.7-0.3-1.4-0.8-1.9-1.4s-0.9-1.3-1.1-2.1
			c-0.3-0.8-0.4-1.7-0.4-2.7c0-1,0.1-1.9,0.4-2.7s0.7-1.5,1.2-2.1c0.5-0.6,1.2-1,1.9-1.4s1.5-0.5,2.4-0.5c1.1,0,2.1,0.2,2.8,0.7
			c0.7,0.5,1.3,1.1,1.8,1.8c0.5,0.7,0.8,1.5,0.9,2.4c0.2,0.9,0.2,1.7,0.2,2.4h-9.5c0,0.6,0,1.1,0.2,1.6c0.1,0.5,0.4,0.9,0.7,1.3
			s0.7,0.7,1.3,0.9c0.5,0.2,1.1,0.3,1.8,0.3c0.9,0,1.6-0.2,2.2-0.6c0.6-0.4,0.9-1,1.1-1.9h2.1C205.7,72.5,205,73.6,204.1,74.3z
			 M203.6,66.1c-0.2-0.4-0.4-0.8-0.8-1.1c-0.3-0.3-0.7-0.6-1.1-0.8s-0.9-0.3-1.4-0.3c-0.5,0-1,0.1-1.5,0.3c-0.4,0.2-0.8,0.4-1.1,0.8
			s-0.6,0.7-0.7,1.1c-0.2,0.4-0.3,0.9-0.3,1.4h7.3C203.9,67,203.8,66.6,203.6,66.1z"/>
	</g>
</g>
<path class="st1" d="M56,0v50.3H45V0H56z"/>
<path class="st1" d="M87.5,0c3.2,0,6.3,0.5,9.1,1.6c2.8,1,5.2,2.6,7.3,4.7c2,2.1,3.6,4.7,4.8,7.8s1.7,6.7,1.7,10.9
	c0,3.7-0.5,7-1.4,10.1c-0.9,3.1-2.4,5.8-4.3,8c-1.9,2.3-4.3,4-7.1,5.3c-2.8,1.3-6.2,1.9-10,1.9H65.8V0H87.5z M86.7,41
	c1.6,0,3.1-0.3,4.7-0.8c1.5-0.5,2.8-1.4,4-2.6c1.2-1.2,2.1-2.8,2.8-4.7c0.7-1.9,1.1-4.3,1.1-7c0-2.5-0.2-4.8-0.7-6.9
	c-0.5-2-1.3-3.8-2.4-5.3c-1.1-1.5-2.6-2.6-4.5-3.3c-1.9-0.8-4.1-1.2-6.9-1.2h-7.9V41H86.7z"/>
<path class="st1" d="M155.6,0v9.3h-26.6v10.8h24.4v8.6h-24.4V41h27.1v9.3H118V0H155.6z"/>
<path class="st1" d="M188.8,0l18.8,50.3h-11.5l-3.8-11.2h-18.8l-3.9,11.2h-11.1l19-50.3H188.8z M189.4,30.9L183,12.4h-0.1l-6.6,18.5
	H189.4z"/>
<circle class="st2" cx="16" cy="25.2" r="16"/>
</svg>
