<?xml version="1.0" encoding="utf-8"?>
<!-- Generator: Adobe Illustrator 22.0.1, SVG Export Plug-In . SVG Version: 6.00 Build 0)  -->
<svg version="1.1" id="Capa_2_1_" xmlns="http://www.w3.org/2000/svg" xmlns:xlink="http://www.w3.org/1999/xlink" x="0px" y="0px"
	 viewBox="0 0 600 439.2" style="enable-background:new 0 0 600 439.2;" xml:space="preserve">
<style type="text/css">
	.st0{fill:#464655;}
	.st1{fill:#707384;}
	.st2{fill:#535463;}
	.st3{fill:#5FD7B4;}
	.st4{fill:#7DE6C3;}
	.st5{fill:#FFCD73;}
	.st6{fill:#FFFFFF;}
	.st7{fill:#324D5B;}
	.st8{fill:#516873;}
</style>
<g id="Capa_1_1_">
	<path class="st0" d="M54.5,37.9H29.9c-3,0-5.4-2.4-5.4-5.4V17.4c0-3,2.4-5.4,5.4-5.4h24.6c3,0,5.4,2.4,5.4,5.4v15.2
		C59.9,35.5,57.5,37.9,54.5,37.9z"/>
	<path class="st1" d="M325.1,227.5H23.7C10.6,227.5,0,216.9,0,203.8V59.4c0-13.1,10.6-23.7,23.7-23.7h301.4
		c13.1,0,23.7,10.6,23.7,23.7v144.4C348.9,216.9,338.3,227.5,325.1,227.5z"/>
	<rect x="84.4" y="59.4" class="st0" width="264.5" height="144.4"/>
	<circle class="st2" cx="210.5" cy="149.8" r="102.4"/>
	<circle class="st0" cx="210.5" cy="149.8" r="78"/>
	<circle class="st3" cx="210.5" cy="149.8" r="66.3"/>
	<path class="st4" d="M225.8,85.3c-29.5,6.7-51.5,33.1-51.5,64.6c0,31.4,21.8,57.7,51.2,64.5c29.4-6.8,51.3-33.1,51.3-64.6
		C276.8,118.5,255.1,92.2,225.8,85.3z"/>
	<path class="st2" d="M60.7,227.5H23.7C10.6,227.5,0,216.9,0,203.8V47.5c0-13.1,10.6-23.7,23.7-23.7h36.9
		c13.1,0,23.7,10.6,23.7,23.7v156.2C84.4,216.9,73.8,227.5,60.7,227.5z"/>
	<path class="st0" d="M25.5,54.5H0v143.4h25.5c9.2,0,16.7-7.5,16.7-16.7v-110C42.2,62,34.7,54.5,25.5,54.5z"/>
	<circle class="st5" cx="321.8" cy="83.6" r="9.2"/>
	<circle class="st3" cx="210.9" cy="149.4" r="23.7"/>
	<circle class="st6" cx="202.9" cy="151.5" r="7.6"/>
	<path class="st1" d="M269.8,12.3c-1.5-4.1-4.3-7.8-8.1-9.9c-0.2-0.1-0.5-0.3-0.7-0.4c-2.6-1.3-5.5-1.9-8.3-1.9h-83.4
		c-2.9,0-5.8,0.6-8.3,1.9c-0.2,0.1-0.5,0.2-0.7,0.4c-3.8,2.2-6.6,5.8-8.1,9.9c-3.1,8.7-7.6,23.4-7.6,23.4h132.8
		C277.4,35.7,272.9,20.9,269.8,12.3z"/>
	<path class="st2" d="M174.4,0c0,0,2.6,9.6,4.3,15.3c0.8,2.7,2.3,4.8,4.5,6.2c0.1,0.1,0.3,0.2,0.4,0.2c1.5,0.8,2.7,1.6,4.8,1.6h44
		c2.2,0,3.4-0.7,4.8-1.6c0.1-0.1,0.3-0.2,0.4-0.2c2.2-1.5,3.7-3.5,4.5-6.2C244,9.6,246.6,0,246.6,0H174.4z"/>
	<circle class="st6" cx="228.5" cy="126.2" r="18.4"/>
</g>
<g>
	<path class="st7" d="M573.5,207.7l25.5-59.2c2.5-5.1,0.1-11.2-5.1-13.5L413.3,57.2c-5.2-2.3-11.4,0.2-13.4,5.5l-25.6,59.3l0,0
		l-97.1,225.2c-2.3,5.2,0.2,11.4,5.4,13.6l0,0l180.1,77.7l0,0c5.2,2.3,11.4-0.2,13.6-5.4L573.5,207.7L573.5,207.7z M318.9,351.1
		c-1.5,3.6-5.8,5.1-9.6,3.4l-7.8-3.4c-3.8-1.6-5.6-5.8-4.1-9.3l2.8-6.4c1.5-3.6,5.8-5.1,9.6-3.4l7.8,3.4c3.8,1.6,5.6,5.8,4.1,9.3
		C321.6,344.7,318.9,351.1,318.9,351.1z M331,322.9c-1.5,3.6-5.8,5.1-9.6,3.4l-7.8-3.4c-3.8-1.6-5.6-5.8-4.1-9.3l2.8-6.4
		c1.5-3.6,5.8-5.1,9.6-3.4l7.8,3.4c3.8,1.6,5.6,5.8,4.1,9.3C333.8,316.5,331,322.9,331,322.9z M343.2,294.7
		c-1.5,3.6-5.8,5.1-9.6,3.4l-7.8-3.4c-3.8-1.6-5.6-5.8-4.1-9.3l2.8-6.4c1.5-3.6,5.8-5.1,9.6-3.4l7.8,3.4c3.8,1.6,5.6,5.8,4.1,9.3
		C346,288.3,343.2,294.7,343.2,294.7z M355.4,266.4c-1.5,3.6-5.8,5.1-9.6,3.4l-7.8-3.4c-3.8-1.6-5.6-5.8-4.1-9.3l2.8-6.4
		c1.5-3.6,5.8-5.1,9.6-3.4l7.8,3.4c3.8,1.6,5.6,5.8,4.1,9.3C358.2,260,355.4,266.4,355.4,266.4z M367.6,238.1
		c-1.5,3.6-5.8,5.1-9.6,3.4l-7.8-3.4c-3.8-1.6-5.6-5.8-4.1-9.3l2.8-6.4c1.5-3.6,5.8-5.1,9.6-3.4l7.8,3.4c3.8,1.6,5.6,5.8,4.1,9.3
		C370.3,231.8,367.6,238.1,367.6,238.1z M379.7,209.9c-1.5,3.6-5.8,5.1-9.6,3.4l-7.8-3.4c-3.8-1.6-5.6-5.8-4.1-9.3l2.8-6.4
		c1.5-3.6,5.8-5.1,9.6-3.4l7.8,3.4c3.8,1.6,5.6,5.8,4.1,9.3C382.5,203.5,379.7,209.9,379.7,209.9z M391.9,181.7
		c-1.5,3.6-5.8,5.1-9.6,3.4l-7.8-3.4c-3.8-1.6-5.6-5.8-4.1-9.3l2.8-6.4c1.5-3.6,5.8-5.1,9.6-3.4l7.8,3.4c3.8,1.6,5.6,5.8,4.1,9.3
		C394.7,175.3,391.9,181.7,391.9,181.7z M404.1,153.5c-1.5,3.6-5.8,5.1-9.6,3.4l-7.8-3.4c-3.8-1.6-5.6-5.8-4.1-9.3l2.8-6.4
		c1.5-3.6,5.8-5.1,9.6-3.4l7.8,3.4c3.8,1.6,5.6,5.8,4.1,9.3C406.8,147.1,404.1,153.5,404.1,153.5z M416.4,125.2l-0.2-0.1
		c-1.5,3.6-5.8,5.1-9.6,3.4l-7.8-3.4c-3.8-1.6-5.6-5.8-4.1-9.3l2.8-6.4c1.7-3.2,6-4.7,9.7-3.1l7.8,3.4c3.8,1.6,5.6,5.8,4.1,9.3
		L416.4,125.2z M428.6,96.9l-0.2-0.1c-1.5,3.6-5.8,5.1-9.6,3.4l-7.8-3.4c-3.8-1.6-5.6-5.8-4.1-9.3l2.8-6.4c1.7-3.2,6-4.7,9.7-3.1
		l7.8,3.4c3.8,1.6,5.6,5.8,4.1,9.3L428.6,96.9z M467,415c-1.5,3.6-5.8,5.1-9.6,3.4l-7.8-3.4c-3.8-1.6-5.6-5.8-4.1-9.3l2.8-6.4
		c1.5-3.6,5.8-5.1,9.6-3.4l7.8,3.4c3.8,1.6,5.6,5.8,4.1,9.3L467,415z M479.1,386.8c-1.5,3.6-5.8,5.1-9.6,3.4l-7.8-3.4
		c-3.8-1.6-5.6-5.8-4.1-9.3l2.8-6.4c1.5-3.6,5.8-5.1,9.6-3.4l7.8,3.4c3.8,1.6,5.6,5.8,4.1,9.3L479.1,386.8z M491.3,358.5
		c-1.5,3.6-5.8,5.1-9.6,3.4l-7.8-3.4c-3.8-1.6-5.6-5.8-4.1-9.3l2.8-6.4c1.5-3.6,5.8-5.1,9.6-3.4l7.8,3.4c3.8,1.6,5.6,5.8,4.1,9.3
		L491.3,358.5z M503.5,330.2c-1.5,3.6-5.8,5.1-9.6,3.4l-7.8-3.4c-3.8-1.6-5.6-5.8-4.1-9.3l2.8-6.4c1.5-3.6,5.8-5.1,9.6-3.4l7.8,3.4
		c3.8,1.6,5.6,5.8,4.1,9.3L503.5,330.2z M515.7,302c-1.5,3.6-5.8,5.1-9.6,3.4l-7.8-3.4c-3.8-1.6-5.6-5.8-4.1-9.3l2.8-6.4
		c1.5-3.6,5.8-5.1,9.6-3.4l7.8,3.4c3.8,1.6,5.6,5.8,4.1,9.3L515.7,302z M527.9,273.8c-1.5,3.6-5.8,5.1-9.6,3.4l-7.8-3.4
		c-3.8-1.6-5.6-5.8-4.1-9.3l2.8-6.4c1.5-3.6,5.8-5.1,9.6-3.4l7.8,3.4c3.8,1.6,5.6,5.8,4.1,9.3L527.9,273.8z M540,245.6
		c-1.5,3.6-5.8,5.1-9.6,3.4l-7.8-3.4c-3.8-1.6-5.6-5.8-4.1-9.3l2.8-6.4c1.5-3.6,5.8-5.1,9.6-3.4l7.8,3.4c3.8,1.6,5.6,5.8,4.1,9.3
		L540,245.6z M552.2,217.3c-1.5,3.6-5.8,5.1-9.6,3.4l-7.8-3.4c-3.8-1.6-5.6-5.8-4.1-9.3l2.8-6.4c1.5-3.6,5.8-5.1,9.6-3.4l7.8,3.4
		c3.8,1.6,5.6,5.8,4.1,9.3L552.2,217.3z M564.5,189l-0.2-0.1c-1.5,3.6-5.8,5.1-9.6,3.4l-7.8-3.4c-3.8-1.6-5.6-5.8-4.1-9.3l2.8-6.4
		c1.7-3.2,6-4.7,9.7-3.1l7.8,3.4c3.8,1.6,5.6,5.8,4.1,9.3L564.5,189z M576.7,160.8l-0.2-0.1c-1.5,3.6-5.8,5.1-9.6,3.4l-7.8-3.4
		c-3.8-1.6-5.6-5.8-4.1-9.3l2.8-6.4c1.7-3.2,6-4.7,9.7-3.1l7.8,3.4c3.8,1.6,5.6,5.8,4.1,9.3L576.7,160.8z"/>
	<path class="st8" d="M506.8,200.1l-80.6-34.8c-2.6-1.1-5.7,0.1-6.8,2.7L398,217.8c-1.1,2.6,0.1,5.7,2.7,6.8l80.6,34.8
		c2.6,1.1,5.7-0.1,6.8-2.7l21.5-49.8C510.6,204.2,509.4,201.2,506.8,200.1z M476.2,271.2l-80.6-34.8c-2.6-1.1-5.7,0.1-6.8,2.7
		l-21.5,49.8c-1.1,2.6,0.1,5.7,2.7,6.8l80.6,34.8c2.6,1.1,5.7-0.1,6.8-2.7l21.5-49.8C479.9,275.4,478.7,272.3,476.2,271.2z
		 M445.5,342.3l-80.6-34.8c-2.6-1.1-5.7,0.1-6.8,2.7l-21.5,49.8c-1.1,2.6,0.1,5.7,2.7,6.8l80.6,34.8c2.6,1.1,5.7-0.1,6.8-2.7
		l21.5-49.8C449.3,346.5,448.1,343.4,445.5,342.3z M506.8,200.1l-80.6-34.8c-2.6-1.1-5.7,0.1-6.8,2.7L398,217.8
		c-1.1,2.6,0.1,5.7,2.7,6.8l80.6,34.8c2.6,1.1,5.7-0.1,6.8-2.7l21.5-49.8C510.6,204.2,509.4,201.2,506.8,200.1z M537.5,129
		l-80.6-34.8c-2.6-1.1-5.7,0.1-6.8,2.7l-21.5,49.8c-1.1,2.6,0.1,5.7,2.7,6.8l80.6,34.8c2.6,1.1,5.7-0.1,6.8-2.7l21.5-49.8
		C541.3,133.1,540.1,130.1,537.5,129z M476.2,271.2l-80.6-34.8c-2.6-1.1-5.7,0.1-6.8,2.7l-21.5,49.8c-1.1,2.6,0.1,5.7,2.7,6.8
		l80.6,34.8c2.6,1.1,5.7-0.1,6.8-2.7l21.5-49.8C479.9,275.4,478.7,272.3,476.2,271.2z M445.5,342.3l-80.6-34.8
		c-2.6-1.1-5.7,0.1-6.8,2.7l-21.5,49.8c-1.1,2.6,0.1,5.7,2.7,6.8l80.6,34.8c2.6,1.1,5.7-0.1,6.8-2.7l21.5-49.8
		C449.3,346.5,448.1,343.4,445.5,342.3z"/>
</g>
</svg>
